<svg width="300" height="300" viewBox="0 0 300 300" fill="none" xmlns="http://www.w3.org/2000/svg">
<path d="M146.532 52.3054C146.532 52.3054 122.101 81.8238 115.332 69.639C112.045 63.7215 116.29 59.0065 115.333 52.3054C114.122 43.829 106.146 39.766 108.399 31.5051C112.46 16.6128 146.532 41.9052 146.532 41.9052V52.3054Z" fill="#FAFAFA" stroke="#222222" stroke-width="3" stroke-linejoin="round"/>
<path d="M153.468 52.3054C153.468 52.3054 177.899 81.8238 184.668 69.639C187.955 63.7215 183.71 59.0065 184.667 52.3054C185.878 43.829 193.854 39.766 191.601 31.5051C187.54 16.6128 153.468 41.9052 153.468 41.9052V52.3054Z" fill="#FAFAFA" stroke="#222222" stroke-width="3" stroke-linejoin="round"/>
<path d="M129.2 48.8386H170.801" stroke="#222222" stroke-width="3" stroke-linejoin="round"/>
<path d="M143.066 55.7721V41.9053H156.933V55.7721H143.066Z" fill="#FAFAFA" stroke="#222222" stroke-width="3" stroke-linejoin="round"/>
</svg>
