<svg width="300" height="300" viewBox="0 0 300 300" fill="none" xmlns="http://www.w3.org/2000/svg">
<path d="M150.059 67.6198C154.737 67.6198 158.223 66.8507 160.69 65.4542C163.212 64.0265 164.605 61.9728 165.065 59.6462C165.512 57.3825 165.051 55.0003 164.167 52.848C163.278 50.6843 161.918 48.6419 160.408 46.9994C159.222 45.7101 158.805 44.5269 158.749 43.4078C158.691 42.2343 159.024 40.9894 159.597 39.5855C159.881 38.8889 160.209 38.1856 160.558 37.4484C160.59 37.3807 160.623 37.3127 160.655 37.2443C160.97 36.5804 161.298 35.887 161.595 35.1926C162.246 33.6718 162.821 31.9816 162.821 30.2083C162.821 26.7916 161.369 24.2605 158.92 22.6542C156.563 21.1082 153.414 20.5 150.059 20.5C146.695 20.5 143.535 21.1368 141.169 22.6922C138.719 24.3032 137.242 26.8271 137.242 30.2083C137.242 31.9257 137.735 33.5267 138.288 34.9703C138.528 35.5958 138.763 36.1592 138.99 36.7011C139.327 37.5094 139.645 38.2698 139.927 39.1168C140.367 40.4379 140.6 41.6717 140.461 42.9199C140.323 44.1474 139.811 45.5135 138.553 47.0732C135.594 50.7423 133.56 55.7952 134.939 60.1475C136.395 64.7426 141.284 67.6198 150.059 67.6198Z" fill="#FAFAFA" stroke="#222222" stroke-width="3"/>
<path d="M159.204 31.7842C157.293 28.2447 154.054 27.5135 152.07 31.5226" stroke="#222222" stroke-width="3" stroke-linecap="round" stroke-linejoin="round"/>
<path d="M148.133 31.7842C146.222 28.2447 142.984 27.5135 141 31.5226" stroke="#222222" stroke-width="3" stroke-linecap="round" stroke-linejoin="round"/>
</svg>
