<svg width="510" height="598" viewBox="0 0 510 598" fill="none" xmlns="http://www.w3.org/2000/svg">
<path d="M247.536 594C333.548 594 394.003 584.047 434.699 567.599C475.468 551.122 496.834 527.919 503.602 501.363C510.32 474.999 502.356 446.418 486.899 419.67C471.408 392.864 448.109 367.386 423.192 346.91C399.116 327.124 388.811 308.121 386.343 289.727C383.856 271.19 389.224 252.58 397.919 233.393C402.257 223.819 407.369 214.214 412.65 204.478C413.408 203.082 414.168 201.683 414.931 200.281C419.466 191.943 424.057 183.503 428.239 175.029C437.996 155.263 445.82 134.769 445.82 113.618C445.82 92.6861 440.402 75.1629 430.326 60.7297C420.274 46.3296 405.758 35.2503 387.933 26.8808C352.399 10.1961 303.106 4.00001 247.536 4C190.94 4 143.326 11.3083 109.722 28.5978C92.8635 37.272 79.4227 48.5147 70.2074 62.7001C60.9788 76.9058 56.1372 93.8345 56.1372 113.618C56.1372 133.699 63.7789 152.911 73.2101 171.52C76.8366 178.675 80.7819 185.841 84.7027 192.962C85.8844 195.109 87.0639 197.251 88.2318 199.388C93.3 208.66 98.182 217.886 102.285 227.201C110.494 245.837 115.434 264.502 112.552 283.991C109.679 303.421 98.9379 324.271 74.6007 347.082C49.5168 370.592 28.6473 397.632 16.2568 425.089C3.87167 452.534 -0.184618 480.748 9.01979 506.234C18.2512 531.794 40.513 553.765 78.9917 569.288C117.416 584.788 172.306 594 247.536 594Z" fill="white" stroke="black" stroke-width="8"/>
<path d="M185.284 148.83C201.394 148.83 216.169 146.062 227.065 141.432C232.505 139.12 237.165 136.264 240.524 132.889C243.899 129.498 246.159 125.362 246.159 120.66C246.159 115.958 243.899 111.821 240.524 108.43C237.165 105.055 232.505 102.199 227.065 99.8873C216.169 95.2568 201.394 92.4894 185.284 92.4894C169.173 92.4894 154.399 95.2568 143.502 99.8873C138.062 102.199 133.402 105.055 130.043 108.43C126.668 111.821 124.409 115.958 124.409 120.66C124.409 125.362 126.668 129.498 130.043 132.889C133.402 136.264 138.062 139.12 143.502 141.432C154.399 146.062 169.173 148.83 185.284 148.83Z" fill="white" stroke="black" stroke-width="8"/>
<ellipse cx="185.284" cy="121" rx="27.625" ry="32" fill="black"/>
<path d="M331.534 148.83C347.644 148.83 362.419 146.062 373.315 141.432C378.755 139.12 383.415 136.264 386.774 132.889C390.149 129.498 392.409 125.362 392.409 120.66C392.409 115.958 390.149 111.821 386.774 108.43C383.415 105.055 378.755 102.199 373.315 99.8873C362.419 95.2568 347.644 92.4894 331.534 92.4894C315.423 92.4894 300.649 95.2568 289.752 99.8873C284.312 102.199 279.652 105.055 276.293 108.43C272.918 111.821 270.659 115.958 270.659 120.66C270.659 125.362 272.918 129.498 276.293 132.889C279.652 136.264 284.312 139.12 289.752 141.432C300.649 146.062 315.423 148.83 331.534 148.83Z" fill="white" stroke="black" stroke-width="8"/>
<ellipse cx="331.534" cy="121" rx="27.625" ry="32" fill="black"/>
</svg>
