<svg width="300" height="300" viewBox="0 0 300 300" fill="none" xmlns="http://www.w3.org/2000/svg">
<path d="M92 58.5688C130.568 58.0814 134.904 80.8752 137.381 88.4601C118.432 96.3854 94.5582 99.1282 92 58.5688Z" fill="white" stroke="black" stroke-width="5"/>
<path d="M207.439 58.5688C168.871 58.0814 164.535 80.8752 162.058 88.4601C181.007 96.3854 204.881 99.1282 207.439 58.5688Z" fill="white" stroke="black" stroke-width="5"/>
<path d="M109.72 78.2832C109.72 74.5658 110.729 71.3134 112.229 69.0634C113.74 66.7958 115.554 65.7832 117.22 65.7832C118.885 65.7832 120.699 66.7958 122.211 69.0634C123.711 71.3134 124.72 74.5658 124.72 78.2832C124.72 82.0006 123.711 85.253 122.211 87.5031C120.699 89.7706 118.885 90.7832 117.22 90.7832C115.554 90.7832 113.74 89.7706 112.229 87.5031C110.729 85.253 109.72 82.0006 109.72 78.2832Z" fill="black" stroke="black" stroke-width="5"/>
<path d="M189.72 78.2832C189.72 74.5658 188.711 71.3134 187.211 69.0634C185.699 66.7958 183.885 65.7832 182.22 65.7832C180.554 65.7832 178.74 66.7958 177.229 69.0634C175.729 71.3134 174.72 74.5658 174.72 78.2832C174.72 82.0006 175.729 85.253 177.229 87.5031C178.74 89.7706 180.554 90.7832 182.22 90.7832C183.885 90.7832 185.699 89.7706 187.211 87.5031C188.711 85.253 189.72 82.0006 189.72 78.2832Z" fill="black" stroke="black" stroke-width="5"/>
</svg>
