<svg width="300" height="300" viewBox="0 0 300 300" fill="none" xmlns="http://www.w3.org/2000/svg">
<path d="M117.22 83.8263C124.512 83.8263 131.232 82.575 136.222 80.4543C138.713 79.3959 140.889 78.0717 142.479 76.4737C144.08 74.8655 145.211 72.8421 145.211 70.4935C145.211 68.1448 144.08 66.1214 142.479 64.5133C140.889 62.9153 138.713 61.591 136.222 60.5327C131.232 58.4119 124.512 57.1606 117.22 57.1606C109.928 57.1606 103.208 58.4119 98.2173 60.5327C95.7269 61.591 93.5507 62.9153 91.9602 64.5133C90.3597 66.1214 89.229 68.1448 89.229 70.4935C89.229 72.8421 90.3597 74.8655 91.9602 76.4737C93.5507 78.0717 95.7269 79.3959 98.2173 80.4543C103.208 82.575 109.928 83.8263 117.22 83.8263Z" fill="white" stroke="#0D0D0D" stroke-width="5"/>
<ellipse cx="117.222" cy="70.6458" rx="12.3812" ry="14.342" fill="#0D0D0D"/>
<path d="M182.767 83.8263C190.059 83.8263 196.779 82.575 201.769 80.4543C204.26 79.3959 206.436 78.0717 208.026 76.4737C209.627 74.8655 210.757 72.8421 210.757 70.4935C210.757 68.1448 209.627 66.1214 208.026 64.5133C206.436 62.9153 204.26 61.591 201.769 60.5327C196.779 58.4119 190.059 57.1606 182.767 57.1606C175.474 57.1606 168.754 58.4119 163.764 60.5327C161.274 61.591 159.098 62.9153 157.507 64.5133C155.907 66.1214 154.776 68.1448 154.776 70.4935C154.776 72.8421 155.907 74.8655 157.507 76.4737C159.098 78.0717 161.274 79.3959 163.764 80.4543C168.754 82.575 175.474 83.8263 182.767 83.8263Z" fill="white" stroke="#0D0D0D" stroke-width="5"/>
<ellipse cx="182.767" cy="70.6458" rx="12.3812" ry="14.342" fill="#0D0D0D"/>
</svg>
