<svg width="300" height="300" viewBox="0 0 300 300" fill="none" xmlns="http://www.w3.org/2000/svg">
<path d="M145 81C128.958 47.6668 106.042 47.6668 90 80.9994L117.5 80.9997L145 81Z" fill="white"/>
<path d="M90 80.9994L87.7473 79.9153C87.3745 80.69 87.4259 81.6019 87.8834 82.3298C88.3408 83.0577 89.1402 83.4994 90 83.4994L90 80.9994ZM145 81L145 83.5C145.86 83.5 146.659 83.0583 147.117 82.3304C147.574 81.6025 147.626 80.6906 147.253 79.9159L145 81ZM117.5 80.9997L117.5 83.4997L117.5 83.4997L117.5 80.9997ZM92.2527 82.0836C100.183 65.6058 109.294 58.4999 117.5 58.5C125.706 58.5001 134.817 65.6061 142.747 82.0841L147.253 79.9159C139.141 63.0607 128.773 53.5001 117.5 53.5C106.227 53.4999 95.8589 63.0604 87.7473 79.9153L92.2527 82.0836ZM145 78.5L117.5 78.4997L117.5 83.4997L145 83.5L145 78.5ZM117.5 78.4997L90 78.4994L90 83.4994L117.5 83.4997L117.5 78.4997Z" fill="black"/>
<path d="M210 81C193.958 47.6668 171.042 47.6668 155 80.9994L182.5 80.9997L210 81Z" fill="white"/>
<path d="M155 80.9994L152.747 79.9153C152.374 80.69 152.426 81.6019 152.883 82.3298C153.341 83.0577 154.14 83.4994 155 83.4994L155 80.9994ZM210 81L210 83.5C210.86 83.5 211.659 83.0583 212.117 82.3304C212.574 81.6025 212.626 80.6906 212.253 79.9159L210 81ZM182.5 80.9997L182.5 83.4997L182.5 83.4997L182.5 80.9997ZM157.253 82.0836C165.183 65.6058 174.294 58.4999 182.5 58.5C190.706 58.5001 199.817 65.6061 207.747 82.0841L212.253 79.9159C204.141 63.0607 193.773 53.5001 182.5 53.5C171.227 53.4999 160.859 63.0604 152.747 79.9153L157.253 82.0836ZM210 78.5L182.5 78.4997L182.5 83.4997L210 83.5L210 78.5ZM182.5 78.4997L155 78.4994L155 83.4994L182.5 83.4997L182.5 78.4997Z" fill="black"/>
<circle cx="117.5" cy="68.5" r="10" fill="black" stroke="black" stroke-width="5"/>
<circle cx="182.5" cy="68.5" r="10" fill="black" stroke="black" stroke-width="5"/>
</svg>
