<svg width="300" height="300" viewBox="0 0 300 300" fill="none" xmlns="http://www.w3.org/2000/svg">
<path d="M126.844 102.016C131.923 102.016 136.592 101.144 140.047 99.6753C141.772 98.9423 143.265 98.031 144.348 96.9426C145.437 95.8481 146.187 94.4916 146.187 92.9328C146.187 91.3741 145.437 90.0175 144.348 88.923C143.265 87.8346 141.772 86.9234 140.047 86.1903C136.592 84.7219 131.923 83.8499 126.844 83.8499C121.764 83.8499 117.095 84.7219 113.64 86.1903C111.915 86.9234 110.422 87.8346 109.339 88.923C108.25 90.0175 107.5 91.3741 107.5 92.9328C107.5 94.4916 108.25 95.8481 109.339 96.9426C110.422 98.031 111.915 98.9423 113.64 99.6753C117.095 101.144 121.764 102.016 126.844 102.016Z" fill="white" stroke="#0D0D0D" stroke-width="3"/>
<path d="M172.726 102.016C177.806 102.016 182.475 101.144 185.93 99.6751C187.655 98.942 189.148 98.0308 190.231 96.9424C191.32 95.8479 192.07 94.4914 192.07 92.9326C192.07 91.3738 191.32 90.0173 190.231 88.9228C189.148 87.8344 187.655 86.9231 185.93 86.1901C182.475 84.7216 177.806 83.8496 172.726 83.8496C167.647 83.8496 162.978 84.7216 159.522 86.1901C157.797 86.9231 156.305 87.8344 155.222 88.9228C154.133 90.0173 153.383 91.3738 153.383 92.9326C153.383 94.4914 154.133 95.8479 155.222 96.9424C156.305 98.0308 157.797 98.942 159.522 99.6751C162.978 101.144 167.647 102.016 172.726 102.016Z" fill="white" stroke="#0D0D0D" stroke-width="3"/>
</svg>
