<svg width="300" height="300" viewBox="0 0 300 300" fill="none" xmlns="http://www.w3.org/2000/svg">
<path d="M146.5 101.5C135.271 78.1667 119.229 78.1667 108 101.5L127.25 101.5L146.5 101.5Z" fill="white"/>
<path d="M108 101.5L106.648 100.849C106.425 101.314 106.456 101.861 106.73 102.298C107.005 102.735 107.484 103 108 103L108 101.5ZM146.5 101.5L146.5 103C147.016 103 147.495 102.735 147.77 102.298C148.044 101.861 148.075 101.314 147.852 100.85L146.5 101.5ZM127.25 101.5L127.25 103L127.25 103L127.25 101.5ZM109.352 102.15C114.912 90.5968 121.352 85.5 127.25 85.5C133.148 85.5 139.588 90.597 145.148 102.15L147.852 100.85C142.183 89.0698 134.988 82.5001 127.25 82.5C119.512 82.4999 112.317 89.0695 106.648 100.849L109.352 102.15ZM146.5 100L127.25 99.9998L127.25 103L146.5 103L146.5 100ZM127.25 99.9998L108 99.9996L108 103L127.25 103L127.25 99.9998Z" fill="black"/>
<path d="M192 101.5C180.771 78.1667 164.729 78.1667 153.5 101.5L172.75 101.5L192 101.5Z" fill="white"/>
<path d="M153.5 101.5L152.148 100.849C151.925 101.314 151.956 101.861 152.23 102.298C152.505 102.735 152.984 103 153.5 103L153.5 101.5ZM192 101.5L192 103C192.516 103 192.995 102.735 193.27 102.298C193.544 101.861 193.575 101.314 193.352 100.85L192 101.5ZM172.75 101.5L172.75 103L172.75 103L172.75 101.5ZM154.852 102.15C160.412 90.5968 166.852 85.5 172.75 85.5C178.648 85.5 185.088 90.597 190.648 102.15L193.352 100.85C187.683 89.0698 180.488 82.5001 172.75 82.5C165.012 82.4999 157.817 89.0695 152.148 100.849L154.852 102.15ZM192 100L172.75 99.9998L172.75 103L192 103L192 100ZM172.75 99.9998L153.5 99.9996L153.5 103L172.75 103L172.75 99.9998Z" fill="black"/>
</svg>
