<svg width="47" height="56" viewBox="0 0 47 56" fill="none" xmlns="http://www.w3.org/2000/svg">
<path d="M23.2291 55C34.2226 55 41.1116 51.2084 44.3288 46.0132C47.5443 40.8207 47.0082 34.3541 43.4096 29.2133C39.9262 24.237 38.4657 21.0468 37.8615 18.5053C37.395 16.5428 37.4321 14.9618 37.4743 13.1654C37.487 12.6244 37.5001 12.0638 37.5001 11.4674C37.5001 8.74054 35.8106 6.11594 33.2285 4.1953C30.6372 2.26772 27.0895 1 23.2291 1C19.2864 1 15.9883 2.42005 13.6718 4.43084C11.3659 6.43245 9.99988 9.05244 9.99988 11.4674C9.99988 11.7736 10.0021 12.0715 10.0043 12.3641C10.0183 14.2299 10.0306 15.8815 9.45347 18.0954C8.78409 20.663 7.31315 24.0055 4.07486 29.2368C0.743802 34.6181 0.312698 41.0702 3.37959 46.1943C6.45206 51.3277 12.955 55 23.2291 55Z" fill="white" stroke="#0D0D0D"/>
<path d="M17.2438 14.7653C18.7022 14.7653 20.0462 14.515 21.0443 14.0909C21.5424 13.8792 21.9776 13.6143 22.2957 13.2947C22.6158 12.9731 22.8419 12.5684 22.8419 12.0987C22.8419 11.629 22.6158 11.2243 22.2957 10.9027C21.9776 10.5831 21.5424 10.3182 21.0443 10.1065C20.0462 9.68238 18.7022 9.43213 17.2438 9.43213C15.7854 9.43213 14.4413 9.68238 13.4433 10.1065C12.9452 10.3182 12.51 10.5831 12.1919 10.9027C11.8718 11.2243 11.6456 11.629 11.6456 12.0987C11.6456 12.5684 11.8718 12.9731 12.1919 13.2947C12.51 13.6143 12.9452 13.8792 13.4433 14.0909C14.4413 14.515 15.7854 14.7653 17.2438 14.7653Z" fill="white" stroke="#0D0D0D"/>
<ellipse cx="17.2441" cy="12.1292" rx="2.47624" ry="2.86841" fill="#0D0D0D"/>
<path d="M30.3532 14.7653C31.8116 14.7653 33.1556 14.515 34.1537 14.0909C34.6517 13.8792 35.087 13.6143 35.4051 13.2947C35.7252 12.9731 35.9513 12.5684 35.9513 12.0987C35.9513 11.629 35.7252 11.2243 35.4051 10.9027C35.087 10.5831 34.6517 10.3182 34.1537 10.1065C33.1556 9.68238 31.8116 9.43213 30.3532 9.43213C28.8947 9.43213 27.5507 9.68238 26.5527 10.1065C26.0546 10.3182 25.6193 10.5831 25.3013 10.9027C24.9811 11.2243 24.755 11.629 24.755 12.0987C24.755 12.5684 24.9811 12.9731 25.3013 13.2947C25.6193 13.6143 26.0546 13.8792 26.5527 14.0909C27.5507 14.515 28.8947 14.7653 30.3532 14.7653Z" fill="white" stroke="#0D0D0D"/>
<ellipse cx="30.3532" cy="12.1292" rx="2.47624" ry="2.86841" fill="#0D0D0D"/>
</svg>
