<svg width="38" height="50" viewBox="0 0 38 50" fill="none" xmlns="http://www.w3.org/2000/svg">
<path d="M18.2297 49.5C26.1825 49.5 31.1338 48.6233 33.9429 47.1276C35.3612 46.3724 36.2697 45.44 36.7152 44.3506C37.1602 43.2625 37.1139 42.0893 36.7622 40.9085C36.0673 38.5756 34.1336 36.0611 32.0201 33.7198C30.9554 32.5403 29.8286 31.3877 28.7641 30.3076C28.6364 30.1781 28.5097 30.0496 28.384 29.9223C27.4593 28.985 26.5964 28.1104 25.868 27.3184C24.315 25.6299 24.0184 23.9143 24.4199 22.1739C24.8313 20.3905 25.9824 18.5601 27.3924 16.7227C28.0934 15.8092 28.8471 14.9078 29.5907 14.0186L29.5915 14.0175L29.5918 14.0172C30.3327 13.1312 31.0649 12.2555 31.709 11.4076C32.3527 10.5603 32.9206 9.72508 33.3288 8.91558C33.7358 8.10834 34 7.29563 34 6.50009C34 4.9933 33.4704 3.82663 32.5282 2.95362C31.6042 2.09749 30.3174 1.55464 28.8465 1.20137C25.9262 0.49999 22.0617 0.499995 18.2788 0.5H18.2297H18.2294L18.1746 0.5C14.3969 0.499975 10.6653 0.499951 7.87763 1.20265C6.47073 1.55729 5.2491 2.10306 4.376 2.96436C3.48742 3.84093 3 5.00488 3 6.50002C3 8.05728 3.9596 9.66645 5.13781 11.2521C5.68955 11.9946 6.31011 12.7578 6.9387 13.5308C6.99224 13.5966 7.04583 13.6626 7.09944 13.7285C7.78567 14.573 8.47798 15.4313 9.11678 16.3091C10.3997 18.0721 11.4291 19.8649 11.75 21.6941C12.0652 23.4913 11.7044 25.367 10.1108 27.3431C9.50943 28.0887 8.8419 28.8828 8.14937 29.7067C6.93659 31.1494 5.64711 32.6834 4.50194 34.2084C2.70343 36.6036 1.16559 39.0938 0.765227 41.3679C0.562366 42.5202 0.646747 43.642 1.15825 44.6681C1.66925 45.6931 2.58016 46.5697 3.93489 47.2803C6.6212 48.6893 11.157 49.5 18.2297 49.5Z" fill="white" stroke="#0D0D0D"/>
<path d="M12.2441 9.7655C13.7026 9.7655 15.0466 9.51525 16.0446 9.0911C16.5427 8.87943 16.978 8.61458 17.296 8.29498C17.6162 7.97334 17.8423 7.56867 17.8423 7.09894C17.8423 6.6292 17.6162 6.22453 17.296 5.9029C16.978 5.5833 16.5427 5.31844 16.0446 5.10677C15.0466 4.68263 13.7026 4.43237 12.2441 4.43237C10.7857 4.43237 9.44171 4.68263 8.44365 5.10677C7.94557 5.31844 7.51034 5.5833 7.19224 5.9029C6.87213 6.22453 6.646 6.6292 6.646 7.09894C6.646 7.56867 6.87213 7.97334 7.19224 8.29498C7.51034 8.61458 7.94557 8.87943 8.44365 9.0911C9.44171 9.51525 10.7857 9.7655 12.2441 9.7655Z" fill="white" stroke="#0D0D0D"/>
<ellipse cx="12.2444" cy="7.1294" rx="2.47624" ry="2.86841" fill="#0D0D0D"/>
<path d="M25.3535 9.7655C26.8119 9.7655 28.156 9.51525 29.154 9.0911C29.6521 8.87943 30.0873 8.61458 30.4054 8.29498C30.7255 7.97334 30.9517 7.56867 30.9517 7.09894C30.9517 6.6292 30.7255 6.22453 30.4054 5.9029C30.0873 5.5833 29.6521 5.31844 29.154 5.10677C28.156 4.68263 26.8119 4.43237 25.3535 4.43237C23.8951 4.43237 22.5511 4.68263 21.553 5.10677C21.0549 5.31844 20.6197 5.5833 20.3016 5.9029C19.9815 6.22453 19.7554 6.6292 19.7554 7.09894C19.7554 7.56867 19.9815 7.97334 20.3016 8.29498C20.6197 8.61458 21.0549 8.87943 21.553 9.0911C22.5511 9.51525 23.8951 9.7655 25.3535 9.7655Z" fill="white" stroke="#0D0D0D"/>
<ellipse cx="25.3536" cy="7.1294" rx="2.47624" ry="2.86841" fill="#0D0D0D"/>
</svg>
