<svg width="29" height="56" viewBox="0 0 29 56" fill="none" xmlns="http://www.w3.org/2000/svg">
<path d="M15.5 55.5C18.8622 55.5 21.3932 54.7752 23.2848 53.5076C25.179 52.2384 26.3864 50.4555 27.1541 48.4227C28.5344 44.7676 28.5177 40.2137 28.503 36.2C28.5015 35.794 28.5 35.3935 28.5 35V12.5C28.5 8.72582 26.9331 5.70823 24.3798 3.64442C21.8369 1.589 18.3438 0.5 14.5 0.5C10.5809 0.5 7.21474 1.68516 4.82101 3.78966C2.42192 5.89888 1.03212 8.90449 1.03212 12.4674C1.03212 14.5063 1.03213 16.3533 1.03214 18.2321C1.03216 22.6647 1.03219 27.2744 1.03208 35C1.03208 35.1966 1.03199 35.3927 1.0319 35.5882C1.03076 38.1203 1.02965 40.5641 1.21528 42.8069C1.41526 45.2232 1.8344 47.4478 2.72813 49.3387C3.62792 51.2423 5.00389 52.7966 7.08619 53.8666C9.15691 54.9307 11.8949 55.5 15.5 55.5Z" fill="white" stroke="#0D0D0D"/>
<path d="M8.24366 15.7653C9.70209 15.7653 11.0461 15.515 12.0442 15.0909C12.5422 14.8792 12.9775 14.6143 13.2956 14.2947C13.6157 13.9731 13.8418 13.5684 13.8418 13.0987C13.8418 12.629 13.6157 12.2243 13.2956 11.9027C12.9775 11.5831 12.5422 11.3182 12.0442 11.1065C11.0461 10.6824 9.70209 10.4321 8.24366 10.4321C6.78523 10.4321 5.44122 10.6824 4.44316 11.1065C3.94508 11.3182 3.50985 11.5831 3.19176 11.9027C2.87164 12.2243 2.64551 12.629 2.64551 13.0987C2.64551 13.5684 2.87164 13.9731 3.19176 14.2947C3.50985 14.6143 3.94508 14.8792 4.44316 15.0909C5.44122 15.515 6.78523 15.7653 8.24366 15.7653Z" fill="white" stroke="#0D0D0D"/>
<ellipse cx="8.24407" cy="13.1292" rx="2.47624" ry="2.86841" fill="#0D0D0D"/>
<path d="M21.353 15.7653C22.8115 15.7653 24.1555 15.515 25.1535 15.0909C25.6516 14.8792 26.0868 14.6143 26.4049 14.2947C26.725 13.9731 26.9512 13.5684 26.9512 13.0987C26.9512 12.629 26.725 12.2243 26.4049 11.9027C26.0868 11.5831 25.6516 11.3182 25.1535 11.1065C24.1555 10.6824 22.8115 10.4321 21.353 10.4321C19.8946 10.4321 18.5506 10.6824 17.5525 11.1065C17.0545 11.3182 16.6192 11.5831 16.3011 11.9027C15.981 12.2243 15.7549 12.629 15.7549 13.0987C15.7549 13.5684 15.981 13.9731 16.3011 14.2947C16.6192 14.6143 17.0545 14.8792 17.5525 15.0909C18.5506 15.515 19.8946 15.7653 21.353 15.7653Z" fill="white" stroke="#0D0D0D"/>
<ellipse cx="21.3532" cy="13.1292" rx="2.47624" ry="2.86841" fill="#0D0D0D"/>
</svg>
