<svg width="36" height="54" viewBox="0 0 36 54" fill="none" xmlns="http://www.w3.org/2000/svg">
<path d="M18.9999 23.5C18.9999 21.3352 19.5091 19.8043 20.2511 18.6258C20.9989 17.4381 22.0026 16.5759 23.0537 15.7722C23.2637 15.6116 23.4774 15.4527 23.6918 15.2932C25.5677 13.8982 27.5 12.4613 27.5 9.5C27.5 6.31549 25.9746 4.04636 23.9041 2.59095C21.8508 1.14757 19.2615 0.5 17.0611 0.5C14.9024 0.5 12.2786 0.88027 10.1784 2.20181C8.04269 3.54569 6.50035 5.83261 6.50035 9.5C6.50035 11.3676 7.07287 12.6975 7.941 13.7614C8.70369 14.6961 9.69344 15.4191 10.6424 16.1123C10.7469 16.1886 10.8508 16.2645 10.9539 16.3403C12.0149 17.1205 13.0147 17.9058 13.7592 18.9934C14.4942 20.0671 14.9999 21.4668 14.9999 23.5C14.9999 25.6003 14.6855 26.6416 14.2164 27.2376C13.7506 27.8292 13.0653 28.0772 11.9837 28.3953C11.9131 28.4161 11.8413 28.4371 11.7682 28.4584C10.7485 28.7561 9.48681 29.1244 8.07329 29.9603C6.55503 30.8581 4.88157 32.2816 3.09698 34.7034C1.47806 36.9004 0.710369 39.1577 0.702214 41.3184C0.694057 43.4798 1.44627 45.5093 2.80761 47.246C5.52444 50.7119 10.647 53 17.0611 53C23.9728 53 29.3752 50.9792 32.2828 47.6409C33.7427 45.9648 34.5643 43.964 34.6188 41.7545C34.6732 39.5497 33.9634 37.1726 32.4227 34.733C30.8794 32.2896 29.2227 30.8832 27.5935 30.0192C26.0536 29.2026 24.5586 28.8837 23.2953 28.6143C23.2311 28.6006 23.1676 28.5871 23.1047 28.5736C21.7643 28.2864 20.7876 28.0398 20.1101 27.3955C19.4589 26.7762 18.9999 25.6941 18.9999 23.5Z" fill="white" stroke="#0D0D0D"/>
<path d="M10.2441 11.7645C11.7026 11.7645 13.0466 11.5143 14.0446 11.0901C14.5427 10.8785 14.978 10.6136 15.296 10.294C15.6162 9.97237 15.8423 9.5677 15.8423 9.09796C15.8423 8.62823 15.6162 8.22355 15.296 7.90192C14.978 7.58232 14.5427 7.31747 14.0446 7.1058C13.0466 6.68165 11.7026 6.4314 10.2441 6.4314C8.78572 6.4314 7.44171 6.68165 6.44365 7.1058C5.94557 7.31747 5.51034 7.58232 5.19224 7.90192C4.87213 8.22355 4.646 8.62823 4.646 9.09796C4.646 9.5677 4.87213 9.97237 5.19224 10.294C5.51034 10.6136 5.94557 10.8785 6.44365 11.0901C7.44171 11.5143 8.78572 11.7645 10.2441 11.7645Z" fill="white" stroke="#0D0D0D"/>
<ellipse cx="10.2446" cy="9.12842" rx="2.47624" ry="2.86841" fill="#0D0D0D"/>
<path d="M23.3535 11.7645C24.8119 11.7645 26.156 11.5143 27.154 11.0901C27.6521 10.8785 28.0873 10.6136 28.4054 10.294C28.7255 9.97237 28.9517 9.5677 28.9517 9.09796C28.9517 8.62823 28.7255 8.22355 28.4054 7.90192C28.0873 7.58232 27.6521 7.31747 27.154 7.1058C26.156 6.68165 24.8119 6.4314 23.3535 6.4314C21.8951 6.4314 20.5511 6.68165 19.553 7.1058C19.0549 7.31747 18.6197 7.58232 18.3016 7.90192C17.9815 8.22355 17.7554 8.62823 17.7554 9.09796C17.7554 9.5677 17.9815 9.97237 18.3016 10.294C18.6197 10.6136 19.0549 10.8785 19.553 11.0901C20.5511 11.5143 21.8951 11.7645 23.3535 11.7645Z" fill="white" stroke="#0D0D0D"/>
<ellipse cx="23.3537" cy="9.12842" rx="2.47624" ry="2.86841" fill="#0D0D0D"/>
</svg>
