<svg width="37" height="55" viewBox="0 0 37 55" fill="none" xmlns="http://www.w3.org/2000/svg">
<path d="M18.2292 53.6692C24.0826 53.6692 28.2318 52.7737 31.0444 51.2697C33.8776 49.7549 35.3457 47.6251 35.807 45.23C36.2635 42.8601 35.7234 40.2908 34.6705 37.8805C33.6155 35.4652 32.0278 33.1673 30.3266 31.3176C28.7227 29.5739 28.0294 27.8935 27.8628 26.2506C27.6948 24.5941 28.0575 22.9313 28.6444 21.2178C28.9375 20.362 29.283 19.5031 29.6408 18.6306C29.692 18.5056 29.7435 18.3802 29.7952 18.2546C30.1024 17.5073 30.4141 16.7492 30.698 15.9882C31.361 14.2111 31.8927 12.3683 31.8927 10.4674C31.8927 6.6893 30.4035 4.15342 27.8903 2.59226C25.4192 1.0572 22.0152 0.5 18.2292 0.5C14.3676 0.5 11.0747 1.15886 8.73447 2.75184C6.36017 4.36804 5.03225 6.90058 5.03225 10.4674C5.03225 12.2583 5.47161 13.977 6.00108 15.6466C6.17514 16.1955 6.35726 16.7347 6.53808 17.2701C6.91548 18.3876 7.28719 19.4883 7.56806 20.6242C7.97852 22.2843 8.17534 23.9564 7.87581 25.7074C7.57693 27.4547 6.7777 29.3156 5.14329 31.3422C1.7332 35.5708 -0.286974 41.1289 1.26786 45.6998C2.8468 50.3416 7.99082 53.6692 18.2292 53.6692Z" fill="white" stroke="#0D0D0D"/>
<path d="M12.2437 13.7653C13.7021 13.7653 15.0461 13.515 16.0442 13.0909C16.5422 12.8792 16.9775 12.6143 17.2956 12.2947C17.6157 11.9731 17.8418 11.5684 17.8418 11.0987C17.8418 10.629 17.6157 10.2243 17.2956 9.90265C16.9775 9.58305 16.5422 9.3182 16.0442 9.10653C15.0461 8.68238 13.7021 8.43213 12.2437 8.43213C10.7852 8.43213 9.44122 8.68238 8.44316 9.10653C7.94508 9.3182 7.50985 9.58305 7.19176 9.90265C6.87164 10.2243 6.64551 10.629 6.64551 11.0987C6.64551 11.5684 6.87164 11.9731 7.19176 12.2947C7.50985 12.6143 7.94508 12.8792 8.44316 13.0909C9.44122 13.515 10.7852 13.7653 12.2437 13.7653Z" fill="white" stroke="#0D0D0D"/>
<ellipse cx="12.2441" cy="11.1292" rx="2.47624" ry="2.86841" fill="#0D0D0D"/>
<path d="M25.353 13.7653C26.8115 13.7653 28.1555 13.515 29.1535 13.0909C29.6516 12.8792 30.0868 12.6143 30.4049 12.2947C30.725 11.9731 30.9512 11.5684 30.9512 11.0987C30.9512 10.629 30.725 10.2243 30.4049 9.90265C30.0868 9.58305 29.6516 9.3182 29.1535 9.10653C28.1555 8.68238 26.8115 8.43213 25.353 8.43213C23.8946 8.43213 22.5506 8.68238 21.5525 9.10653C21.0545 9.3182 20.6192 9.58305 20.3011 9.90265C19.981 10.2243 19.7549 10.629 19.7549 11.0987C19.7549 11.5684 19.981 11.9731 20.3011 12.2947C20.6192 12.6143 21.0545 12.8792 21.5525 13.0909C22.5506 13.515 23.8946 13.7653 25.353 13.7653Z" fill="white" stroke="#0D0D0D"/>
<ellipse cx="25.3532" cy="11.1292" rx="2.47624" ry="2.86841" fill="#0D0D0D"/>
</svg>
