<svg width="390" height="598" viewBox="0 0 390 598" fill="none" xmlns="http://www.w3.org/2000/svg">
<path d="M189.056 594C254.226 594 300.221 584.024 331.279 567.418C362.5 550.724 378.555 527.347 383.605 501.132C388.615 475.118 382.702 446.793 371.03 420.071C359.34 393.309 341.732 367.818 322.853 347.292C304.753 327.613 296.855 308.555 294.958 289.855C293.051 271.046 297.177 252.244 303.755 233.038C307.042 223.443 310.912 213.824 314.903 204.088C315.476 202.691 316.052 201.291 316.629 199.888C320.057 191.55 323.522 183.12 326.68 174.657C334.055 154.889 339.909 134.541 339.909 113.618C339.909 71.9616 323.532 44.2048 296.003 27.1037C268.809 10.2115 231.191 4.00001 189.056 4C146.108 4 109.746 11.3364 84.0205 28.848C58.0221 46.5453 43.4086 74.2755 43.4086 113.618C43.4086 133.464 49.1204 152.527 56.2514 171.142C59.0584 178.47 62.0439 185.639 65.0146 192.773C69.7147 204.06 74.3778 215.257 78.2384 226.852C84.4558 245.526 88.2502 264.381 86.0427 284.132C83.8414 303.828 75.6326 324.75 57.2949 347.489C19.504 394.35 -5.95823 455.693 7.75569 505.928C14.6683 531.25 31.4609 553.391 60.9077 569.107C90.2375 584.761 132.019 594 189.056 594Z" fill="white" stroke="black" stroke-width="8"/>
<path d="M122.284 148.83C138.394 148.83 153.169 146.062 164.065 141.432C169.505 139.12 174.165 136.264 177.524 132.889C180.899 129.498 183.159 125.362 183.159 120.66C183.159 115.958 180.899 111.821 177.524 108.43C174.165 105.055 169.505 102.199 164.065 99.8873C153.169 95.2568 138.394 92.4894 122.284 92.4894C106.173 92.4894 91.3986 95.2568 80.5024 99.8873C75.0619 102.199 70.4019 105.055 67.043 108.43C63.6679 111.821 61.4086 115.958 61.4086 120.66C61.4086 125.362 63.6679 129.498 67.043 132.889C70.4019 136.264 75.0619 139.12 80.5024 141.432C91.3986 146.062 106.173 148.83 122.284 148.83Z" fill="white" stroke="black" stroke-width="8"/>
<ellipse cx="122.284" cy="121" rx="27.625" ry="32" fill="black"/>
<path d="M268.534 148.83C284.644 148.83 299.419 146.062 310.315 141.432C315.755 139.12 320.415 136.264 323.774 132.889C327.149 129.498 329.409 125.362 329.409 120.66C329.409 115.958 327.149 111.821 323.774 108.43C320.415 105.055 315.755 102.199 310.315 99.8873C299.419 95.2568 284.644 92.4894 268.534 92.4894C252.423 92.4894 237.649 95.2568 226.752 99.8873C221.312 102.199 216.652 105.055 213.293 108.43C209.918 111.821 207.659 115.958 207.659 120.66C207.659 125.362 209.918 129.498 213.293 132.889C216.652 136.264 221.312 139.12 226.752 141.432C237.649 146.062 252.423 148.83 268.534 148.83Z" fill="white" stroke="black" stroke-width="8"/>
<ellipse cx="268.534" cy="121" rx="27.625" ry="32" fill="black"/>
</svg>
