<svg width="300" height="300" viewBox="0 0 300 300" fill="none" xmlns="http://www.w3.org/2000/svg">
<path d="M148.076 243.75C186.5 243.75 210.513 230.5 221.713 212.415C232.907 194.337 231.049 171.812 218.503 153.89C206.303 136.461 201.171 125.265 199.046 116.326C197.406 109.423 197.537 103.85 197.684 97.5556C197.729 95.666 197.775 93.7112 197.775 91.6359C197.775 82.1972 191.923 73.0775 182.925 66.3841C173.899 59.67 161.535 55.25 148.076 55.25C134.338 55.25 122.853 60.1977 114.79 67.1967C106.758 74.1683 102.024 83.2742 102.024 91.6359C102.024 92.7052 102.032 93.7464 102.04 94.77C102.089 101.301 102.132 107.115 100.103 114.897C97.7516 123.918 92.5888 135.641 81.249 153.961C69.6309 172.729 68.1392 195.211 78.8175 213.052C89.5125 230.921 112.175 243.75 148.076 243.75Z" fill="white" stroke="#0D0D0D" stroke-width="3"/>
</svg>
