<svg width="300" height="300" viewBox="0 0 300 300" fill="none" xmlns="http://www.w3.org/2000/svg">
<path d="M147.098 284.5C202.065 284.5 236.51 265.542 252.596 239.566C268.674 213.604 265.993 181.27 248 155.566C230.583 130.685 223.28 114.734 220.26 102.026C217.927 92.2138 218.113 84.309 218.323 75.3268C218.387 72.6218 218.453 69.819 218.453 66.837C218.453 53.2027 210.005 40.0797 197.095 30.4765C184.138 20.8386 166.4 14.5 147.098 14.5C127.384 14.5 110.893 21.6003 99.3112 31.6542C87.7818 41.6623 80.9515 54.7622 80.9515 66.837C80.9515 68.3679 80.9627 69.8575 80.9736 71.3207C81.0434 80.6496 81.1052 88.9076 78.2195 99.9768C74.8726 112.815 67.5179 129.527 51.3264 155.684C34.6712 182.59 32.5156 214.851 47.8501 240.471C63.2125 266.139 95.727 284.5 147.098 284.5Z" fill="white" stroke="#0D0D0D" stroke-width="5"/>
<path d="M117.17 83.3263C124.463 83.3263 131.183 82.075 136.173 79.9543C138.663 78.8959 140.839 77.5717 142.43 75.9737C144.031 74.3655 145.161 72.3421 145.161 69.9935C145.161 67.6448 144.031 65.6214 142.43 64.0133C140.839 62.4153 138.663 61.091 136.173 60.0327C131.183 57.9119 124.463 56.6606 117.17 56.6606C109.878 56.6606 103.158 57.9119 98.168 60.0327C95.6776 61.091 93.5014 62.4153 91.9109 64.0133C90.3104 65.6214 89.1797 67.6448 89.1797 69.9935C89.1797 72.3421 90.3104 74.3655 91.9109 75.9737C93.5014 77.5717 95.6776 78.8959 98.168 79.9543C103.158 82.075 109.878 83.3263 117.17 83.3263Z" fill="white" stroke="#0D0D0D" stroke-width="5"/>
<ellipse cx="117.172" cy="70.1458" rx="12.3812" ry="14.342" fill="#0D0D0D"/>
<path d="M182.717 83.3263C190.009 83.3263 196.729 82.075 201.72 79.9543C204.21 78.8959 206.386 77.5717 207.977 75.9737C209.577 74.3655 210.708 72.3421 210.708 69.9935C210.708 67.6448 209.577 65.6214 207.977 64.0133C206.386 62.4153 204.21 61.091 201.72 60.0327C196.729 57.9119 190.009 56.6606 182.717 56.6606C175.425 56.6606 168.705 57.9119 163.715 60.0327C161.224 61.091 159.048 62.4153 157.458 64.0133C155.857 65.6214 154.727 67.6448 154.727 69.9935C154.727 72.3421 155.857 74.3655 157.458 75.9737C159.048 77.5717 161.224 78.8959 163.715 79.9543C168.705 82.075 175.425 83.3263 182.717 83.3263Z" fill="white" stroke="#0D0D0D" stroke-width="5"/>
<ellipse cx="182.718" cy="70.1458" rx="12.3812" ry="14.342" fill="#0D0D0D"/>
</svg>
