<svg width="300" height="300" viewBox="0 0 300 300" fill="none" xmlns="http://www.w3.org/2000/svg">
<path d="M150.768 243.222C163.594 243.222 172.766 240.043 178.987 234.666C185.213 229.285 188.292 221.869 189.256 213.781C191.173 197.694 184.784 178.539 177.469 165.684C170.506 153.446 171.21 141.684 173.763 129.635C174.503 126.145 175.37 122.736 176.25 119.283C176.915 116.669 177.587 114.03 178.214 111.313C179.645 105.114 180.771 98.7699 180.771 92.2639C180.771 79.3687 177.658 70.6301 172.179 65.1285C166.697 59.6242 159.113 57.6274 150.768 57.6274C142.224 57.6274 134.885 60.0005 129.708 65.6968C124.556 71.3663 121.775 80.0776 121.775 92.2639C121.775 98.43 122.874 104.37 124.257 110.208C124.799 112.495 125.377 114.74 125.954 116.977C126.868 120.525 127.776 124.053 128.527 127.696C130.937 139.4 131.532 151.573 124.456 165.756C117.098 180.505 112.214 199.662 114.849 215.265C116.172 223.101 119.41 230.131 125.281 235.196C131.158 240.266 139.505 243.222 150.768 243.222Z" fill="white" stroke="black" stroke-width="3"/>
</svg>
