<svg width="300" height="300" viewBox="0 0 300 300" fill="none" xmlns="http://www.w3.org/2000/svg">
<path d="M146.071 241.5C119.346 241.5 100.457 233.548 90.2408 221.665C79.9653 209.713 78.6859 194.029 86.7424 179.281C94.8261 164.483 108.978 159.08 120.616 154.78C120.814 154.707 121.012 154.634 121.208 154.562C126.868 152.472 131.785 150.657 135.359 148.181C138.941 145.7 141.036 142.652 141.036 138C141.036 133.318 138.842 129.825 135.308 126.77C131.969 123.883 127.571 121.504 122.908 118.981C122.551 118.787 122.192 118.593 121.832 118.398C116.857 115.7 111.676 112.794 107.757 108.966C103.781 105.083 101.059 100.209 101.059 93.6359C101.059 80.9382 106.626 72.0654 115.126 66.4312C123.548 60.8487 134.751 58.5 146.071 58.5C158.345 58.5 171.511 59.6866 181.649 64.6465C186.746 67.1402 191.121 70.6074 194.214 75.3885C197.31 80.1741 199.059 86.1775 199.059 93.6359C199.059 101.294 196.172 106.716 191.852 110.81C187.601 114.839 181.99 117.555 176.605 119.95C175.794 120.31 174.991 120.663 174.197 121.011C169.613 123.023 165.355 124.891 162.046 127.274C158.257 130.003 155.931 133.255 155.931 138C155.931 140.493 156.402 142.435 157.213 144.015C158.023 145.594 159.215 146.894 160.776 148.041C163.897 150.332 168.299 151.895 173.711 153.815C173.847 153.864 173.984 153.912 174.122 153.961C185.195 157.892 199.481 163.139 211.266 179.109C217.19 187.137 219.534 195.152 218.698 202.689C217.863 210.218 213.879 217.061 207.545 222.799C194.916 234.242 172.751 241.5 146.071 241.5Z" fill="white" stroke="#0D0D0D" stroke-width="3"/>
</svg>
