<svg width="300" height="300" viewBox="0 0 300 300" fill="none" xmlns="http://www.w3.org/2000/svg">
<path d="M147.803 243.092C168.269 243.092 182.745 239.96 192.539 234.724C202.393 229.454 207.481 222.061 209.08 213.758C210.665 205.53 208.792 196.591 205.119 188.182C201.439 179.757 195.898 171.738 189.96 165.281C184.318 159.147 181.932 153.225 181.434 147.425C180.932 141.581 182.335 135.723 184.521 129.707C185.613 126.704 186.888 123.691 188.201 120.635C188.352 120.284 188.503 119.932 188.655 119.579C189.818 116.877 190.996 114.14 192.065 111.39C194.479 105.177 196.397 98.7541 196.397 92.1359C196.397 78.9586 190.94 70.174 181.979 64.7746C173.142 59.4504 161.04 57.5 147.803 57.5C134.308 57.5 122.842 59.8038 114.712 65.3381C106.48 70.942 101.864 79.7231 101.864 92.1359C101.864 98.4075 103.669 104.422 105.909 110.271C106.795 112.584 107.734 114.839 108.667 117.078C110.138 120.611 111.594 124.106 112.804 127.738C114.748 133.58 115.928 139.457 115.241 145.604C114.556 151.731 112.002 158.252 106.275 165.355C94.4006 180.079 86.3533 199.406 90.6869 215.281C92.8746 223.295 98.1897 230.293 107.483 235.254C116.733 240.19 129.886 243.092 147.803 243.092Z" fill="white" stroke="#0D0D0D" stroke-width="3"/>
</svg>
