<svg width="300" height="300" viewBox="0 0 300 300" fill="none" xmlns="http://www.w3.org/2000/svg">
<path d="M147.332 272.5C187.096 272.5 211.853 268.116 225.898 260.638C232.99 256.862 237.533 252.2 239.76 246.753C241.985 241.312 241.753 235.447 239.995 229.543C236.52 217.878 226.852 205.305 216.285 193.599C210.961 187.701 205.327 181.939 200.005 176.538C199.366 175.891 198.733 175.248 198.105 174.612C193.481 169.925 189.166 165.552 185.524 161.592C177.759 153.15 176.276 144.572 178.284 135.87C180.341 126.953 186.096 117.801 193.146 108.613C196.651 104.046 200.419 99.539 204.137 95.0927L204.142 95.0877L204.143 95.0856C207.848 90.6556 211.509 86.2775 214.729 82.038C217.947 77.8017 220.787 73.6254 222.828 69.5779C224.863 65.5417 226.184 61.4781 226.184 57.5004C226.184 49.9665 223.536 44.1331 218.825 39.7681C214.205 35.4874 207.771 32.7732 200.417 31.0069C185.815 27.4999 166.492 27.5 147.578 27.5L147.332 27.5H147.331L147.057 27.5C128.168 27.4999 109.511 27.4998 95.5721 31.0133C88.5376 32.7865 82.4294 35.5153 78.064 39.8218C73.6211 44.2047 71.1839 50.0244 71.1839 57.5001C71.1839 65.2864 75.982 73.3323 81.873 81.2604C84.6317 84.9729 87.7346 88.7889 90.8776 92.6542C91.1452 92.9833 91.4131 93.3128 91.6811 93.6426C95.1123 97.8648 98.5739 102.156 101.768 106.546C108.183 115.361 113.329 124.324 114.934 133.471C116.51 142.457 114.706 151.835 106.738 161.715C103.731 165.444 100.393 169.414 96.9308 173.533C90.8669 180.747 84.4195 188.417 78.6937 196.042C69.7011 208.018 62.0119 220.469 60.0101 231.84C58.9958 237.601 59.4177 243.21 61.9752 248.34C64.5302 253.466 69.0848 257.848 75.8584 261.401C89.2899 268.446 111.969 272.5 147.332 272.5Z" fill="white" stroke="#0D0D0D" stroke-width="5"/>
<path d="M117.404 73.8275C124.696 73.8275 131.416 72.5762 136.407 70.4555C138.897 69.3972 141.073 68.0729 142.664 66.4749C144.264 64.8667 145.395 62.8434 145.395 60.4947C145.395 58.146 144.264 56.1227 142.664 54.5145C141.073 52.9165 138.897 51.5922 136.407 50.5339C131.416 48.4131 124.696 47.1619 117.404 47.1619C110.112 47.1619 103.392 48.4131 98.4016 50.5339C95.9112 51.5922 93.735 52.9165 92.1446 54.5145C90.544 56.1227 89.4133 58.146 89.4133 60.4947C89.4133 62.8434 90.544 64.8667 92.1446 66.4749C93.735 68.0729 95.9112 69.3972 98.4016 70.4555C103.392 72.5762 110.112 73.8275 117.404 73.8275Z" fill="white" stroke="#0D0D0D" stroke-width="5"/>
<ellipse cx="117.406" cy="60.647" rx="12.3812" ry="14.342" fill="#0D0D0D"/>
<path d="M182.951 73.8273C190.243 73.8273 196.963 72.576 201.953 70.4553C204.444 69.3969 206.62 68.0727 208.21 66.4746C209.811 64.8665 210.942 62.8431 210.942 60.4944C210.942 58.1458 209.811 56.1224 208.21 54.5142C206.62 52.9162 204.444 51.592 201.953 50.5336C196.963 48.4129 190.243 47.1616 182.951 47.1616C175.659 47.1616 168.939 48.4129 163.948 50.5336C161.458 51.592 159.282 52.9162 157.691 54.5142C156.091 56.1224 154.96 58.1458 154.96 60.4944C154.96 62.8431 156.091 64.8665 157.691 66.4746C159.282 68.0727 161.458 69.3969 163.948 70.4553C168.939 72.576 175.659 73.8273 182.951 73.8273Z" fill="white" stroke="#0D0D0D" stroke-width="5"/>
<ellipse cx="182.952" cy="60.6467" rx="12.3812" ry="14.342" fill="#0D0D0D"/>
</svg>
