<svg width="300" height="300" viewBox="0 0 300 300" fill="none" xmlns="http://www.w3.org/2000/svg">
<path d="M153.841 287.5C170.652 287.5 183.307 283.876 192.765 277.538C202.236 271.192 208.273 262.277 212.112 252.113C219.013 233.838 218.93 211.068 218.856 191C218.849 188.97 218.841 186.967 218.841 185V72.5C218.841 53.6291 211.007 38.5411 198.24 28.2221C185.526 17.945 168.06 12.5 148.841 12.5C129.246 12.5 112.415 18.4258 100.446 28.9483C88.4509 39.4944 81.5019 54.5225 81.5019 72.337C81.5019 82.5323 81.5019 91.7677 81.502 101.162C81.5021 123.325 81.5023 146.373 81.5017 185C81.5017 185.983 81.5013 186.963 81.5008 187.941C81.4951 200.602 81.4896 212.82 82.4177 224.034C83.4176 236.116 85.5133 247.239 89.9819 256.693C94.4809 266.212 101.361 273.983 111.772 279.333C122.126 284.653 135.816 287.5 153.841 287.5Z" fill="white" stroke="#0D0D0D" stroke-width="5"/>
<path d="M117.56 88.8263C124.852 88.8263 131.572 87.575 136.562 85.4543C139.052 84.3959 141.229 83.0717 142.819 81.4737C144.42 79.8655 145.55 77.8421 145.55 75.4935C145.55 73.1448 144.42 71.1214 142.819 69.5133C141.229 67.9153 139.052 66.591 136.562 65.5327C131.572 63.4119 124.852 62.1606 117.56 62.1606C110.267 62.1606 103.547 63.4119 98.5571 65.5327C96.0667 66.591 93.8905 67.9153 92.3001 69.5133C90.6995 71.1214 89.5688 73.1448 89.5688 75.4935C89.5688 77.8421 90.6995 79.8655 92.3001 81.4737C93.8905 83.0717 96.0667 84.3959 98.5571 85.4543C103.547 87.575 110.267 88.8263 117.56 88.8263Z" fill="white" stroke="#0D0D0D" stroke-width="5"/>
<ellipse cx="117.562" cy="75.6458" rx="12.3812" ry="14.342" fill="#0D0D0D"/>
<path d="M183.106 88.8263C190.399 88.8263 197.119 87.575 202.109 85.4543C204.599 84.3959 206.776 83.0717 208.366 81.4737C209.967 79.8655 211.097 77.8421 211.097 75.4935C211.097 73.1448 209.967 71.1214 208.366 69.5133C206.776 67.9153 204.599 66.591 202.109 65.5327C197.119 63.4119 190.399 62.1606 183.106 62.1606C175.814 62.1606 169.094 63.4119 164.104 65.5327C161.614 66.591 159.437 67.9153 157.847 69.5133C156.246 71.1214 155.116 73.1448 155.116 75.4935C155.116 77.8421 156.246 79.8655 157.847 81.4737C159.437 83.0717 161.614 84.3959 164.104 85.4543C169.094 87.575 175.814 88.8263 183.106 88.8263Z" fill="white" stroke="#0D0D0D" stroke-width="5"/>
<ellipse cx="183.107" cy="75.6458" rx="12.3812" ry="14.342" fill="#0D0D0D"/>
</svg>
