<svg width="300" height="300" viewBox="0 0 300 300" fill="none" xmlns="http://www.w3.org/2000/svg">
<path d="M152.744 246C164.476 246 173.283 243.471 179.852 239.069C186.429 234.662 190.627 228.469 193.3 221.391C198.113 208.644 198.056 192.754 198.005 178.696C197.999 177.277 197.994 175.877 197.994 174.5V95.75C197.994 82.6163 192.545 72.126 183.667 64.9499C174.82 57.7989 162.653 54 149.244 54C135.577 54 123.858 58.1327 115.533 65.4516C107.192 72.7845 102.357 83.2348 102.357 95.6359C102.357 102.773 102.357 109.237 102.357 115.813C102.357 131.327 102.357 147.461 102.357 174.5C102.357 175.187 102.356 175.873 102.356 176.556C102.352 185.422 102.348 193.964 102.997 201.803C103.696 210.248 105.159 218 108.269 224.578C111.397 231.196 116.175 236.593 123.41 240.311C130.611 244.011 140.15 246 152.744 246Z" fill="white" stroke="#0D0D0D" stroke-width="3"/>
</svg>
