<svg width="300" height="300" viewBox="0 0 300 300" fill="none" xmlns="http://www.w3.org/2000/svg">
<path d="M148.263 235.5C176.093 235.5 193.369 232.43 203.142 227.226C208.07 224.602 211.2 221.377 212.731 217.633C214.261 213.892 214.107 209.847 212.887 205.751C210.473 197.645 203.742 188.881 196.344 180.687C192.622 176.563 188.682 172.533 184.956 168.752C184.509 168.299 184.065 167.849 183.625 167.403C180.389 164.123 177.366 161.059 174.814 158.284C169.32 152.311 168.263 146.221 169.686 140.053C171.138 133.755 175.196 127.313 180.135 120.877C182.591 117.676 185.232 114.518 187.833 111.407L187.838 111.401C190.432 108.299 192.991 105.238 195.242 102.275C197.491 99.3151 199.468 96.4056 200.887 93.592C202.302 90.7852 203.21 87.9807 203.21 85.2503C203.21 80.0424 201.382 76.0268 198.138 73.0211C194.949 70.0659 190.492 68.1796 185.364 66.9479C175.172 64.5 161.669 64.5 148.411 64.5L148.263 64.5H148.263L148.097 64.5C134.855 64.4999 121.819 64.4999 112.092 66.9517C107.19 68.1875 102.962 70.0826 99.9511 73.0532C96.8934 76.0697 95.2095 80.0771 95.2095 85.2501C95.2095 90.6094 98.5172 96.1813 102.643 101.733C104.57 104.327 106.739 106.994 108.94 109.701C109.127 109.931 109.314 110.161 109.502 110.392C111.903 113.348 114.33 116.356 116.57 119.435C121.067 125.614 124.697 131.926 125.831 138.386C126.947 144.75 125.663 151.388 120.042 158.358C117.93 160.976 115.591 163.759 113.166 166.644C108.925 171.689 104.421 177.046 100.416 182.38C94.1227 190.761 88.7741 199.435 87.384 207.331C86.681 211.325 86.9762 215.194 88.7371 218.727C90.4966 222.256 93.6403 225.29 98.3478 227.76C107.693 232.661 123.517 235.5 148.263 235.5Z" fill="white" stroke="#0D0D0D" stroke-width="3"/>
</svg>
