<svg width="300" height="300" viewBox="0 0 300 300" fill="none" xmlns="http://www.w3.org/2000/svg">
<path d="M150.983 283.35C169.363 283.35 182.559 278.793 191.53 271.039C200.508 263.279 204.936 252.593 206.32 240.976C209.071 217.889 199.908 190.447 189.438 172.047C179.554 154.676 180.542 137.978 184.183 120.798C185.239 115.814 186.474 110.961 187.728 106.039C188.678 102.306 189.639 98.5326 190.539 94.6305C192.585 85.7657 194.201 76.6719 194.201 67.3378C194.201 48.8644 189.742 36.2725 181.823 28.3209C173.899 20.3649 162.957 17.5 150.983 17.5C138.713 17.5 128.117 20.9097 120.633 29.1446C113.19 37.3348 109.208 49.8813 109.208 67.3378C109.208 76.1876 110.784 84.7054 112.763 93.0549C113.541 96.3368 114.368 99.5491 115.192 102.746C116.495 107.806 117.789 112.828 118.86 118.027C122.294 134.702 123.136 152.002 113.075 172.167C102.544 193.275 95.5361 220.721 99.3179 243.114C101.218 254.366 105.874 264.494 114.34 271.797C122.815 279.109 134.83 283.35 150.983 283.35Z" fill="white" stroke="black" stroke-width="5"/>
<path d="M117.491 83.8264C124.783 83.8264 131.504 82.5751 136.494 80.4543C138.984 79.396 141.161 78.0717 142.751 76.4737C144.352 74.8655 145.482 72.8421 145.482 70.4934C145.482 68.1447 144.352 66.1213 142.751 64.5131C141.161 62.9151 138.984 61.5908 136.494 60.5325C131.504 58.4117 124.783 57.1604 117.491 57.1604C110.199 57.1604 103.479 58.4117 98.4884 60.5325C95.998 61.5908 93.8218 62.9151 92.2313 64.5131C90.6307 66.1213 89.5 68.1447 89.5 70.4934C89.5 72.8421 90.6307 74.8655 92.2313 76.4737C93.8218 78.0717 95.998 79.396 98.4884 80.4543C103.479 82.5751 110.199 83.8264 117.491 83.8264Z" fill="white" stroke="black" stroke-width="5"/>
<ellipse cx="117.492" cy="70.646" rx="12.3814" ry="14.3423" fill="black"/>
<path d="M183.039 83.8264C190.332 83.8264 197.052 82.5751 202.042 80.4543C204.533 79.396 206.709 78.0717 208.299 76.4737C209.9 74.8655 211.031 72.8421 211.031 70.4934C211.031 68.1447 209.9 66.1213 208.299 64.5131C206.709 62.9151 204.533 61.5908 202.042 60.5325C197.052 58.4117 190.332 57.1604 183.039 57.1604C175.747 57.1604 169.027 58.4117 164.037 60.5325C161.546 61.5908 159.37 62.9151 157.78 64.5131C156.179 66.1213 155.048 68.1447 155.048 70.4934C155.048 72.8421 156.179 74.8655 157.78 76.4737C159.37 78.0717 161.546 79.396 164.037 80.4543C169.027 82.5751 175.747 83.8264 183.039 83.8264Z" fill="white" stroke="black" stroke-width="5"/>
<ellipse cx="183.04" cy="70.646" rx="12.3814" ry="14.3423" fill="black"/>
</svg>
