<svg width="300" height="300" viewBox="0 0 300 300" fill="none" xmlns="http://www.w3.org/2000/svg">
<path d="M156.989 133.5C156.989 122.676 159.535 115.022 163.245 109.129C166.984 103.191 172.002 98.8795 177.258 94.8609C178.308 94.058 179.376 93.2634 180.448 92.466C189.828 85.4911 199.489 78.3067 199.489 63.5C199.489 47.5774 191.862 36.2318 181.51 28.9547C171.243 21.7378 158.297 18.5 147.295 18.5C136.501 18.5 123.382 20.4013 112.881 27.0091C102.203 33.7284 94.491 45.163 94.491 63.5C94.491 72.8379 97.3536 79.4874 101.694 84.8071C105.508 89.4807 110.456 93.0955 115.201 96.5615C115.724 96.9429 116.243 97.3225 116.759 97.7016C122.064 101.603 127.063 105.529 130.785 110.967C134.46 116.335 136.989 123.334 136.989 133.5C136.989 144.001 135.417 149.208 133.071 152.188C130.742 155.146 127.316 156.386 121.908 157.977C121.555 158.081 121.196 158.185 120.83 158.292C115.732 159.78 109.423 161.622 102.356 165.801C94.7644 170.291 86.3971 177.408 77.4742 189.517C69.3796 200.502 65.5411 211.789 65.5003 222.592C65.4595 233.399 69.2206 243.546 76.0273 252.23C89.6114 269.56 115.224 281 147.295 281C181.853 281 208.865 270.896 223.403 254.204C230.703 245.824 234.811 235.82 235.083 224.773C235.355 213.749 231.807 201.863 224.103 189.665C216.386 177.448 208.103 170.416 199.957 166.096C192.257 162.013 184.782 160.419 178.466 159.072C178.145 159.003 177.827 158.935 177.513 158.868C170.811 157.432 165.927 156.199 162.54 152.977C159.284 149.881 156.989 144.47 156.989 133.5Z" fill="white" stroke="#0D0D0D" stroke-width="5"/>
<path d="M113.21 74.8226C120.502 74.8226 127.222 73.5714 132.212 71.4506C134.703 70.3923 136.879 69.068 138.469 67.47C140.07 65.8618 141.201 63.8385 141.201 61.4898C141.201 59.1411 140.07 57.1178 138.469 55.5096C136.879 53.9116 134.703 52.5873 132.212 51.529C127.222 49.4083 120.502 48.157 113.21 48.157C105.918 48.157 99.1978 49.4083 94.2075 51.529C91.7171 52.5873 89.5409 53.9116 87.9505 55.5096C86.3499 57.1178 85.2192 59.1411 85.2192 61.4898C85.2192 63.8385 86.3499 65.8618 87.9505 67.47C89.5409 69.068 91.7171 70.3923 94.2075 71.4506C99.1978 73.5714 105.918 74.8226 113.21 74.8226Z" fill="white" stroke="#0D0D0D" stroke-width="5"/>
<ellipse cx="113.212" cy="61.6421" rx="12.3812" ry="14.342" fill="#0D0D0D"/>
<path d="M178.757 74.8226C186.049 74.8226 192.769 73.5714 197.759 71.4506C200.25 70.3923 202.426 69.068 204.016 67.47C205.617 65.8618 206.748 63.8385 206.748 61.4898C206.748 59.1411 205.617 57.1178 204.016 55.5096C202.426 53.9116 200.25 52.5873 197.759 51.529C192.769 49.4083 186.049 48.157 178.757 48.157C171.465 48.157 164.745 49.4083 159.754 51.529C157.264 52.5873 155.088 53.9116 153.497 55.5096C151.897 57.1178 150.766 59.1411 150.766 61.4898C150.766 63.8385 151.897 65.8618 153.497 67.47C155.088 69.068 157.264 70.3923 159.754 71.4506C164.745 73.5714 171.465 74.8226 178.757 74.8226Z" fill="white" stroke="#0D0D0D" stroke-width="5"/>
<ellipse cx="178.758" cy="61.6421" rx="12.3812" ry="14.342" fill="#0D0D0D"/>
</svg>
