<svg width="16" height="16" viewBox="0 0 16 16" fill="none" xmlns="http://www.w3.org/2000/svg">
<path d="M7.4203 15.3257C9.01293 15.3257 10.1394 15.0819 10.9015 14.6744C11.6684 14.2644 12.0643 13.689 12.1887 13.0429C12.3121 12.4027 12.1663 11.7071 11.8805 11.0527C11.5941 10.3971 11.163 9.773 10.7008 9.27056C10.2618 8.79325 10.0761 8.33241 10.0374 7.88108C9.9983 7.42625 10.1075 6.9704 10.2776 6.50231C10.3626 6.26854 10.4618 6.03409 10.564 5.79632C10.5757 5.76898 10.5875 5.7416 10.5993 5.71417C10.6898 5.50391 10.7815 5.2909 10.8646 5.07691C11.0525 4.59341 11.2018 4.09358 11.2018 3.57857C11.2018 2.55313 10.7771 1.86953 10.0798 1.44937C9.39209 1.03505 8.45037 0.883273 7.4203 0.883273C6.37017 0.883273 5.47791 1.06255 4.84523 1.49322C4.20459 1.9293 3.84539 2.61263 3.84539 3.57857C3.84539 4.06661 3.98585 4.53465 4.1602 4.98978C4.22917 5.16982 4.30223 5.34525 4.37481 5.51951C4.48931 5.79442 4.6026 6.06643 4.6967 6.34908C4.84804 6.80362 4.93985 7.26098 4.88638 7.73937C4.83309 8.21614 4.63437 8.7236 4.18864 9.2763C3.26463 10.4221 2.6384 11.9261 2.97564 13.1614C3.14588 13.785 3.55949 14.3297 4.28271 14.7157C5.00251 15.0998 6.02601 15.3257 7.4203 15.3257Z" fill="#FAFAFA" stroke="#222222" stroke-width="0.233454"/>
<path d="M5.78796 4.34671C6.18321 4.34671 6.54657 4.27886 6.81546 4.16458C6.94969 4.10754 7.06582 4.03663 7.15012 3.95193C7.23489 3.86676 7.29323 3.7612 7.29323 3.6399C7.29323 3.5186 7.23489 3.41303 7.15012 3.32786C7.06582 3.24317 6.94969 3.17225 6.81546 3.11521C6.54657 3.00094 6.18321 2.93308 5.78796 2.93308C5.39271 2.93308 5.02935 3.00094 4.76046 3.11521C4.62623 3.17225 4.5101 3.24317 4.4258 3.32786C4.34103 3.41303 4.28269 3.5186 4.28269 3.6399C4.28269 3.7612 4.34103 3.86676 4.4258 3.95193C4.5101 4.03663 4.62623 4.10754 4.76046 4.16458C5.02935 4.27886 5.39271 4.34671 5.78796 4.34671Z" fill="#FAFAFA" stroke="#222222" stroke-width="0.233454"/>
<path d="M9.3573 4.34671C9.75255 4.34671 10.1159 4.27886 10.3848 4.16458C10.519 4.10754 10.6352 4.03663 10.7195 3.95193C10.8042 3.86676 10.8626 3.7612 10.8626 3.6399C10.8626 3.5186 10.8042 3.41303 10.7195 3.32786C10.6352 3.24317 10.519 3.17225 10.3848 3.11521C10.1159 3.00094 9.75255 2.93308 9.3573 2.93308C8.96204 2.93308 8.59869 3.00094 8.32979 3.11521C8.19556 3.17225 8.07943 3.24317 7.99514 3.32786C7.91037 3.41303 7.85202 3.5186 7.85202 3.6399C7.85202 3.7612 7.91037 3.86676 7.99514 3.95193C8.07943 4.03663 8.19556 4.10754 8.32979 4.16458C8.59869 4.27886 8.96204 4.34671 9.3573 4.34671Z" fill="#FAFAFA" stroke="#222222" stroke-width="0.233454"/>
<circle cx="5.80125" cy="3.64647" r="0.505816" fill="#222222" stroke="#222222" stroke-width="0.233454"/>
<circle cx="9.38036" cy="3.64647" r="0.505816" fill="#222222" stroke="#222222" stroke-width="0.233454"/>
</svg>
